<svg width="48" height="49" viewBox="0 0 48 49" fill="none" xmlns="http://www.w3.org/2000/svg">
<circle cx="5.53846" cy="5.53846" r="5.53846" fill="black"/>
<circle cx="5.53846" cy="42.2308" r="5.53846" fill="black"/>
<rect y="5.07715" width="11.0769" height="36.9231" fill="black"/>
<rect x="5.53833" width="23.5385" height="11.0769" fill="black"/>
<path d="M5.53833 36.6924H27.1153L19.3845 47.7693H5.53833V36.6924Z" fill="black"/>
<path fill-rule="evenodd" clip-rule="evenodd" d="M29.0769 36.6867C29.2303 36.6904 29.3841 36.6923 29.5384 36.6923C39.7345 36.6923 48 28.4785 48 18.3462C48 8.21385 39.7345 0 29.5384 0C29.3841 0 29.2303 0.00188101 29.0769 0.00562122V11.1092C29.3048 11.088 29.5358 11.0771 29.7693 11.0771C33.8477 11.0771 37.1539 14.3834 37.1539 18.4618C37.1539 22.5402 33.8477 25.8464 29.7693 25.8464C29.5358 25.8464 29.3048 25.8355 29.0769 25.8144V36.6867Z" fill="black"/>
<path d="M14.3076 18.4609H27.6922L47.9291 47.7686L34.6599 48.1148L14.3076 18.4609Z" fill="#8F7FFA"/>
</svg>
