<svg width="24" height="24" viewBox="0 0 24 24" fill="none" xmlns="http://www.w3.org/2000/svg">
<g clip-path="url(#clip0_136_225)">
<mask id="mask0_136_225" style="mask-type:luminance" maskUnits="userSpaceOnUse" x="-1" y="0" width="26" height="24">
<path d="M12.58 0.402599L15.6491 7.93476L23.4291 8.66459C23.777 8.69266 24.0268 9.01079 24.0001 9.3757C23.9822 9.55348 23.9108 9.70318 23.7859 9.81546L17.8975 15.2049L19.6372 23.1956C19.7175 23.5511 19.5034 23.8973 19.1644 23.9815C18.9949 24.019 18.8164 23.9815 18.6826 23.888L11.9911 19.6962L5.28184 23.9067C4.98742 24.0938 4.60378 23.9909 4.42534 23.6821C4.33612 23.5324 4.31828 23.3546 4.35396 23.1956L6.09374 15.2049L0.205264 9.81546C-0.0534717 9.58155 -0.0802375 9.16049 0.142811 8.88915C0.267718 8.7488 0.428313 8.6833 0.588908 8.67394L8.35099 7.94412L11.4201 0.402599C11.554 0.0657571 11.9198 -0.0839505 12.241 0.0564004C12.4015 0.121897 12.5175 0.252892 12.58 0.402599Z" fill="white"/>
</mask>
<g mask="url(#mask0_136_225)">
<mask id="mask1_136_225" style="mask-type:luminance" maskUnits="userSpaceOnUse" x="-1" y="-1" width="26" height="26">
<path d="M24.0269 -0.09375H-0.0712891V24.0934H24.0269V-0.09375Z" fill="white"/>
</mask>
<g mask="url(#mask1_136_225)">
<rect width="27.4082" height="25.6" transform="matrix(1 0 0 -1 -1.01697 25.0254)" fill="#F6DB49"/>
</g>
</g>
<path d="M12.58 0.402599L15.6491 7.93476L23.429 8.66459C23.777 8.69266 24.0268 9.01079 24 9.3757C23.9822 9.55348 23.9108 9.70318 23.7859 9.81546L22.7331 10.7792C19.8692 11.8178 16.1131 12.4447 12 12.4447C7.88704 12.4447 4.12198 11.8178 1.26696 10.7792L0.214176 9.81546C-0.0445606 9.58155 -0.0713264 9.16049 0.151722 8.88915C0.267707 8.7488 0.428302 8.6833 0.588897 8.67394L8.35098 7.94412L11.4201 0.402599C11.554 0.0657571 11.9198 -0.0839505 12.2409 0.0564004C12.4015 0.121897 12.5175 0.252892 12.58 0.402599Z" fill="#F6DB49"/>
</g>
<defs>
<clipPath id="clip0_136_225">
<rect width="24" height="24" fill="white"/>
</clipPath>
</defs>
</svg>
